<?xml version="1.0" encoding="UTF-8" standalone="no"?>
<!DOCTYPE svg PUBLIC "-//W3C//DTD SVG 1.1//EN"
 "http://www.w3.org/Graphics/SVG/1.1/DTD/svg11.dtd">
<!-- Generated by graphviz version 2.43.0 (0)
 -->
<!-- Title: %3 Pages: 1 -->
<svg width="574pt" height="425pt"
 viewBox="0.00 0.00 574.00 425.00" xmlns="http://www.w3.org/2000/svg" xmlns:xlink="http://www.w3.org/1999/xlink">
<g id="graph0" class="graph" transform="scale(1 1) rotate(0) translate(4 421)">
<title>%3</title>
<polygon fill="white" stroke="transparent" points="-4,4 -4,-421 570,-421 570,4 -4,4"/>
<!-- Spieler -->
<g id="node1" class="node">
<title>Spieler</title>
<polygon fill="none" stroke="black" points="566,-216 223,-216 223,-178 566,-178 566,-216"/>
<text text-anchor="middle" x="394.5" y="-200.8" font-family="Times,serif" font-size="14.00">Spieler</text>
<text text-anchor="middle" x="394.5" y="-185.8" font-family="Times,serif" font-size="14.00">(ID, Name, Position, Geburtsdatum, Team_ID)</text>
</g>
<!-- Team -->
<g id="node2" class="node">
<title>Team</title>
<polygon fill="none" stroke="black" points="237,-127 10,-127 10,-89 237,-89 237,-127"/>
<text text-anchor="middle" x="123.5" y="-111.8" font-family="Times,serif" font-size="14.00">Team</text>
<text text-anchor="middle" x="123.5" y="-96.8" font-family="Times,serif" font-size="14.00">(ID, Name, Stadt, Trainer_ID)</text>
</g>
<!-- Spieler&#45;&gt;Team -->
<g id="edge1" class="edge">
<title>Spieler&#45;&gt;Team</title>
<path fill="none" stroke="black" d="M338.35,-177.97C295.02,-164.06 234.97,-144.79 189.37,-130.15"/>
<polygon fill="black" stroke="black" points="190.17,-126.73 179.58,-127 188.03,-133.39 190.17,-126.73"/>
<text text-anchor="middle" x="330" y="-148.8" font-family="Times,serif" font-size="14.00">gehört zu (N:1)</text>
</g>
<!-- Trainer -->
<g id="node3" class="node">
<title>Trainer</title>
<polygon fill="none" stroke="black" points="247,-38 0,-38 0,0 247,0 247,-38"/>
<text text-anchor="middle" x="123.5" y="-22.8" font-family="Times,serif" font-size="14.00">Trainer</text>
<text text-anchor="middle" x="123.5" y="-7.8" font-family="Times,serif" font-size="14.00">(ID, Name, Erfahrung, Team_ID)</text>
</g>
<!-- Team&#45;&gt;Trainer -->
<g id="edge2" class="edge">
<title>Team&#45;&gt;Trainer</title>
<path fill="none" stroke="black" d="M123.5,-88.97C123.5,-77.19 123.5,-61.56 123.5,-48.16"/>
<polygon fill="black" stroke="black" points="127,-48 123.5,-38 120,-48 127,-48"/>
<text text-anchor="middle" x="155.5" y="-59.8" font-family="Times,serif" font-size="14.00">hat (1:N)</text>
</g>
<!-- Spiel -->
<g id="node4" class="node">
<title>Spiel</title>
<polygon fill="none" stroke="black" points="350,-417 217,-417 217,-379 350,-379 350,-417"/>
<text text-anchor="middle" x="283.5" y="-401.8" font-family="Times,serif" font-size="14.00">Spiel</text>
<text text-anchor="middle" x="283.5" y="-386.8" font-family="Times,serif" font-size="14.00">(ID, Datum, Ort)</text>
</g>
<!-- Spiel_Team -->
<g id="node5" class="node">
<title>Spiel_Team</title>
<polygon fill="none" stroke="black" points="218.5,-272 62.5,-272 62.5,-234 218.5,-234 218.5,-272"/>
<text text-anchor="middle" x="140.5" y="-256.8" font-family="Times,serif" font-size="14.00">Spiel_Team</text>
<text text-anchor="middle" x="140.5" y="-241.8" font-family="Times,serif" font-size="14.00">(Spiel_ID, Team_ID)</text>
</g>
<!-- Spiel&#45;&gt;Spiel_Team -->
<g id="edge3" class="edge">
<title>Spiel&#45;&gt;Spiel_Team</title>
<path fill="none" stroke="black" d="M234.72,-378.97C225.07,-374.05 215.46,-368.08 207.5,-361 182.45,-338.73 163.42,-304.88 152.16,-281.24"/>
<polygon fill="black" stroke="black" points="155.31,-279.72 147.95,-272.1 148.95,-282.65 155.31,-279.72"/>
<text text-anchor="middle" x="272.5" y="-349.8" font-family="Times,serif" font-size="14.00">besteht aus (N:M)</text>
</g>
<!-- Spiel_Spieler -->
<g id="node6" class="node">
<title>Spiel_Spieler</title>
<polygon fill="none" stroke="black" points="466,-328 297,-328 297,-290 466,-290 466,-328"/>
<text text-anchor="middle" x="381.5" y="-312.8" font-family="Times,serif" font-size="14.00">Spiel_Spieler</text>
<text text-anchor="middle" x="381.5" y="-297.8" font-family="Times,serif" font-size="14.00">(Spiel_ID, Spieler_ID)</text>
</g>
<!-- Spiel&#45;&gt;Spiel_Spieler -->
<g id="edge5" class="edge">
<title>Spiel&#45;&gt;Spiel_Spieler</title>
<path fill="none" stroke="black" d="M317.13,-378.89C325.5,-373.66 334.17,-367.56 341.5,-361 349.55,-353.79 357.18,-344.82 363.58,-336.42"/>
<polygon fill="black" stroke="black" points="366.45,-338.42 369.55,-328.29 360.81,-334.28 366.45,-338.42"/>
<text text-anchor="middle" x="418" y="-349.8" font-family="Times,serif" font-size="14.00">hat Spieler (N:M)</text>
</g>
<!-- Spiel_Team&#45;&gt;Team -->
<g id="edge4" class="edge">
<title>Spiel_Team&#45;&gt;Team</title>
<path fill="none" stroke="black" d="M126.15,-233.93C122.62,-228.48 119.33,-222.26 117.5,-216 109.92,-190.06 112.87,-159.12 116.85,-137.19"/>
<polygon fill="black" stroke="black" points="120.31,-137.71 118.84,-127.22 113.45,-136.34 120.31,-137.71"/>
<text text-anchor="middle" x="166" y="-193.3" font-family="Times,serif" font-size="14.00">enthält (N:M)</text>
</g>
<!-- Spiel_Spieler&#45;&gt;Spieler -->
<g id="edge6" class="edge">
<title>Spiel_Spieler&#45;&gt;Spieler</title>
<path fill="none" stroke="black" d="M383.65,-289.84C385.69,-272.56 388.79,-246.31 391.16,-226.29"/>
<polygon fill="black" stroke="black" points="394.65,-226.53 392.35,-216.19 387.7,-225.71 394.65,-226.53"/>
<text text-anchor="middle" x="441.5" y="-249.3" font-family="Times,serif" font-size="14.00">spielt in (N:M)</text>
</g>
</g>
</svg>
